<mxfile host="app.diagrams.net" modified="2022-04-15T14:57:39.608Z" agent="5.0 (Macintosh; Intel Mac OS X 10_15_7) AppleWebKit/537.36 (KHTML, like Gecko) Chrome/100.0.4896.75 Safari/537.36" etag="LyQK-VigHbq3_RB6CxmU" version="16.5.2" type="github">
  <diagram id="2Bm0OKxgpscsYZo6_jiS" name="Page-1">
    <mxGraphModel dx="1989" dy="771" grid="1" gridSize="10" guides="1" tooltips="1" connect="1" arrows="1" fold="1" page="1" pageScale="1" pageWidth="850" pageHeight="1100" math="0" shadow="0">
      <root>
        <mxCell id="0" />
        <mxCell id="1" parent="0" />
        <mxCell id="DzUbMmh9D805cYf4m1B1-1" value="CX Processing" style="rounded=0;whiteSpace=wrap;html=1;fillColor=#fff2cc;strokeColor=#d6b656;" vertex="1" parent="1">
          <mxGeometry x="-800" y="190" width="120" height="60" as="geometry" />
        </mxCell>
        <mxCell id="DzUbMmh9D805cYf4m1B1-2" value="" style="endArrow=classic;html=1;rounded=0;" edge="1" parent="1">
          <mxGeometry width="50" height="50" relative="1" as="geometry">
            <mxPoint x="-680" y="220" as="sourcePoint" />
            <mxPoint x="-590" y="220" as="targetPoint" />
          </mxGeometry>
        </mxCell>
        <mxCell id="DzUbMmh9D805cYf4m1B1-3" value="Processing&lt;br&gt;&amp;nbsp;Completed" style="text;html=1;align=center;verticalAlign=middle;resizable=0;points=[];autosize=1;strokeColor=none;fillColor=none;" vertex="1" parent="1">
          <mxGeometry x="-680" y="190" width="80" height="30" as="geometry" />
        </mxCell>
        <mxCell id="DzUbMmh9D805cYf4m1B1-4" value="Send message to CX SNS" style="rounded=0;whiteSpace=wrap;html=1;fillColor=#d5e8d4;strokeColor=#82b366;" vertex="1" parent="1">
          <mxGeometry x="-590" y="190" width="120" height="60" as="geometry" />
        </mxCell>
        <mxCell id="DzUbMmh9D805cYf4m1B1-7" value="Send message&amp;nbsp;" style="text;html=1;align=center;verticalAlign=middle;resizable=0;points=[];autosize=1;strokeColor=none;fillColor=none;" vertex="1" parent="1">
          <mxGeometry x="-475" y="200" width="100" height="20" as="geometry" />
        </mxCell>
        <mxCell id="DzUbMmh9D805cYf4m1B1-8" value="" style="endArrow=classic;html=1;rounded=0;" edge="1" parent="1">
          <mxGeometry width="50" height="50" relative="1" as="geometry">
            <mxPoint x="-470" y="219.5" as="sourcePoint" />
            <mxPoint x="-380" y="219.5" as="targetPoint" />
          </mxGeometry>
        </mxCell>
        <mxCell id="DzUbMmh9D805cYf4m1B1-12" value="PX SQS subscribe to CX SNS will received the message" style="rounded=0;whiteSpace=wrap;html=1;fillColor=#d5e8d4;strokeColor=#82b366;" vertex="1" parent="1">
          <mxGeometry x="-380" y="190" width="120" height="60" as="geometry" />
        </mxCell>
        <mxCell id="DzUbMmh9D805cYf4m1B1-13" value="Trigger PX workflow" style="rounded=0;whiteSpace=wrap;html=1;fillColor=#d5e8d4;strokeColor=#82b366;" vertex="1" parent="1">
          <mxGeometry x="-190" y="190" width="120" height="60" as="geometry" />
        </mxCell>
        <mxCell id="DzUbMmh9D805cYf4m1B1-14" value="" style="endArrow=classic;html=1;rounded=0;" edge="1" parent="1">
          <mxGeometry width="50" height="50" relative="1" as="geometry">
            <mxPoint x="-260" y="219" as="sourcePoint" />
            <mxPoint x="-190" y="219" as="targetPoint" />
          </mxGeometry>
        </mxCell>
      </root>
    </mxGraphModel>
  </diagram>
</mxfile>
